FILE "Burai - Hachigyoku no Yuushi Densetsu (1992)(Sega)(JP).img" BINARY
  TRACK 01 MODE1/2352
    INDEX 01 00:00:00
  TRACK 02 AUDIO
    PREGAP 00:02:00
    INDEX 01 06:50:43
  TRACK 03 AUDIO
    INDEX 00 07:25:01
    INDEX 01 07:27:00
  TRACK 04 AUDIO
    INDEX 00 07:33:61
    INDEX 01 07:35:60
  TRACK 05 AUDIO
    INDEX 00 08:21:48
    INDEX 01 08:23:47
  TRACK 06 AUDIO
    INDEX 00 08:40:13
    INDEX 01 08:42:12
  TRACK 07 AUDIO
    INDEX 00 09:02:67
    INDEX 01 09:04:66
  TRACK 08 AUDIO
    INDEX 00 09:30:10
    INDEX 01 09:32:09
  TRACK 09 AUDIO
    INDEX 00 09:51:01
    INDEX 01 09:53:00
  TRACK 10 AUDIO
    INDEX 00 10:35:23
    INDEX 01 10:37:22
  TRACK 11 AUDIO
    INDEX 00 11:05:52
    INDEX 01 11:07:51
  TRACK 12 AUDIO
    INDEX 00 11:35:56
    INDEX 01 11:37:55
  TRACK 13 AUDIO
    INDEX 00 11:54:17
    INDEX 01 11:56:16
  TRACK 14 AUDIO
    INDEX 00 12:24:17
    INDEX 01 12:26:16
  TRACK 15 AUDIO
    INDEX 00 13:17:37
    INDEX 01 13:19:36
  TRACK 16 AUDIO
    INDEX 00 13:57:40
    INDEX 01 13:59:39
  TRACK 17 AUDIO
    INDEX 00 14:35:69
    INDEX 01 14:37:68
  TRACK 18 AUDIO
    INDEX 00 14:57:11
    INDEX 01 14:59:10
  TRACK 19 AUDIO
    INDEX 00 15:28:08
    INDEX 01 15:30:07
  TRACK 20 AUDIO
    INDEX 00 15:36:48
    INDEX 01 15:38:47
  TRACK 21 AUDIO
    INDEX 00 15:56:46
    INDEX 01 15:58:45
  TRACK 22 AUDIO
    INDEX 00 16:16:03
    INDEX 01 16:18:02
  TRACK 23 AUDIO
    INDEX 00 16:22:10
    INDEX 01 16:24:09
  TRACK 24 AUDIO
    INDEX 00 17:03:26
    INDEX 01 17:05:25
  TRACK 25 AUDIO
    INDEX 00 17:22:33
    INDEX 01 17:24:32
  TRACK 26 AUDIO
    INDEX 00 17:57:40
    INDEX 01 17:59:39
  TRACK 27 AUDIO
    INDEX 00 18:03:47
    INDEX 01 18:05:46
  TRACK 28 AUDIO
    INDEX 00 18:42:59
    INDEX 01 18:44:58
  TRACK 29 AUDIO
    INDEX 00 19:25:62
    INDEX 01 19:27:61
  TRACK 30 AUDIO
    INDEX 00 19:31:69
    INDEX 01 19:33:68
  TRACK 31 AUDIO
    INDEX 00 19:38:01
    INDEX 01 19:40:00
  TRACK 32 AUDIO
    INDEX 00 20:11:07
    INDEX 01 20:13:06
  TRACK 33 AUDIO
    INDEX 00 20:49:11
    INDEX 01 20:51:10
  TRACK 34 AUDIO
    INDEX 00 21:25:01
    INDEX 01 21:27:00
  TRACK 35 AUDIO
    INDEX 00 21:52:34
    INDEX 01 21:54:33
  TRACK 36 AUDIO
    INDEX 00 22:19:14
    INDEX 01 22:21:13
  TRACK 37 AUDIO
    INDEX 00 22:56:52
    INDEX 01 22:58:51
  TRACK 38 AUDIO
    INDEX 00 23:28:46
    INDEX 01 23:30:45
  TRACK 39 AUDIO
    INDEX 00 24:03:08
    INDEX 01 24:05:07
  TRACK 40 AUDIO
    INDEX 00 24:21:36
    INDEX 01 24:23:35
  TRACK 41 AUDIO
    INDEX 00 24:56:60
    INDEX 01 24:58:59
  TRACK 42 AUDIO
    INDEX 00 26:13:07
    INDEX 01 26:15:06
